<svg xmlns="http://www.w3.org/2000/svg" version="1.1" xmlns:xlink="http://www.w3.org/1999/xlink" xmlns:svgjs="http://svgjs.dev/svgjs" viewBox="0 0 800 800"><defs><linearGradient x1="50%" y1="0%" x2="50%" y2="100%" id="wwwhirl-grad"><stop stop-color="#bc9974ff" stop-opacity="1" offset="45%"></stop><stop stop-color="hsla(0, 0%, 80%, 1.00)" stop-opacity="1" offset="100%"></stop></linearGradient></defs><g stroke-width="2" stroke="url(#wwwhirl-grad)" fill="none" stroke-linecap="round"><path d="M-475 492.42932891845703C-422.91666666666663 464.30432891845703 -329.16666666666674 355.3459955851237 -225 357.42932891845703C-120.83333333333331 359.5126622517904 -79.16666666666669 519.616828918457 25 502.42932891845703C129.16666666666674 485.24182891845703 170.83333333333326 270.24182891845703 275 274.92932891845703C379.16666666666674 279.61682891845703 420.83333333333326 517.116828918457 525 524.929328918457C629.1666666666665 532.741828918457 670.8333333333335 327.0126622517904 775 312.42932891845703C879.1666666666665 297.8459955851237 920.8333333333335 452.3251622517904 1025 454.92932891845703C1129.1666666666665 457.5334955851237 1222.9166666666665 352.0126622517904 1275 324.92932891845703 " transform="rotate(35, 400, 400)"></path><path d="M-412.5 485.8271996634347C-364.13690476190476 459.7111282348633 -277.08333333333337 358.53553299676804 -180.3571428571429 360.47005680629184C-83.63095238095235 362.4045806158157 -44.94047619047626 511.07273537772045 51.78571428571422 495.112913949149C148.51190476190482 479.15309252057756 187.20238095238085 279.5102353777204 283.92857142857144 283.862913949149C380.6547619047619 288.21559252057756 419.3452380952381 508.75130680629184 516.0714285714284 516.0057710920062C612.797619047619 523.2602353777204 651.4880952380954 332.22600918724424 748.2142857142858 318.68434252057756C844.9404761904761 305.1426758539109 883.6309523809525 448.58761633010135 980.3571428571429 451.00577109200617C1077.0833333333333 453.4239258539109 1164.1369047619046 355.44029490152997 1212.5 330.29148537772045 " transform="rotate(32.5, 400, 400)"></path><path d="M-350 479.2251390729632C-305.35714285714283 455.1179962158203 -225.00000000000006 361.7251390729632 -135.71428571428572 363.5108533586775C-46.42857142857139 365.29656764439176 -10.71428571428578 502.52871050153465 78.57142857142856 487.79656764439176C167.8571428571429 473.06442478724887 203.57142857142856 288.7787105015346 292.8571428571429 292.79656764439176C382.1428571428571 296.81442478724887 417.8571428571429 500.3858533586775 507.1428571428571 507.0822819301061C596.4285714285716 513.7787105015346 632.1428571428571 337.43942478724887 721.4285714285713 324.93942478724887C810.7142857142858 312.43942478724887 846.4285714285713 444.8501390729632 935.7142857142858 447.0822819301061C1025 449.31442478724887 1105.357142857143 358.8679962158203 1150 335.6537105015346 " transform="rotate(30, 400, 400)"></path><path d="M-287.5 472.6230479649135C-246.57738095238093 450.5248336791992 -172.91666666666669 364.9147146315802 -91.07142857142856 366.55161939348494C-9.226190476190425 368.1885241553897 23.51190476190476 493.98465510777066 105.35714285714283 480.4801908220564C187.20238095238096 466.9757265363421 219.94047619047615 298.04715510777066 301.78571428571433 301.7301908220564C383.6309523809524 305.4132265363421 416.3690476190476 492.02036939348494 498.21428571428567 498.1587622506278C580.0595238095237 504.29715510777066 612.7976190476192 342.6528098696754 694.6428571428571 331.1944765363421C776.4880952380952 319.73614320300874 809.2261904761906 441.1126312982468 891.0714285714287 443.1587622506278C972.9166666666665 445.20489320300874 1046.577380952381 362.29566701253253 1087.5 341.01590510777066 " transform="rotate(27.5, 400, 400)"></path><path d="M-225 466.0209263392858C-187.79761904761904 445.931640625 -120.83333333333337 368.10425967261904 -46.428571428571445 369.5923549107143C27.97619047619048 371.0804501488095 57.73809523809524 485.44056919642856 132.14285714285717 473.1637834821429C206.54761904761904 460.88699776785717 236.30952380952374 307.31556919642856 310.71428571428567 310.66378348214283C385.1190476190477 314.01199776785717 414.8809523809523 483.65485491071433 489.28571428571433 489.23521205357144C563.690476190476 494.81556919642856 593.4523809523811 347.8661644345238 667.8571428571429 337.44949776785717C742.2619047619046 327.0328311011905 772.0238095238096 437.3750930059524 846.4285714285713 439.23521205357144C920.8333333333333 441.0953311011905 987.797619047619 365.7233072916667 1025 346.37806919642856 " transform="rotate(25, 400, 400)"></path><path d="M-162.5 459.41884286063055C-129.0178571428571 441.33848571777344 -68.75 371.29384286063055 -1.7857142857142776 372.6331285749163C65.17857142857144 373.972414289202 91.96428571428567 476.89652143205916 158.92857142857144 465.847414289202C225.89285714285717 454.7983071463449 252.67857142857144 316.58402143205916 319.6428571428571 319.597414289202C386.6071428571429 322.6108071463449 413.3928571428571 475.2893785749163 480.3571428571429 480.3117000034878C547.3214285714284 485.33402143205916 574.1071428571429 353.0795571463449 641.0714285714286 343.7045571463449C708.0357142857143 334.3295571463449 734.8214285714286 433.63759286063055 801.7857142857142 435.3117000034877C868.75 436.9858071463449 929.0178571428571 369.15098571777344 962.5 351.74027143205916 " transform="rotate(22.5, 400, 400)"></path><path d="M-100 452.81673649379184C-70.23809523809521 436.7453079223633 -16.666666666666686 374.4834031604585 42.85714285714286 375.6738793509347C102.38095238095241 376.86435554141093 126.19047619047615 468.35245077950617 185.71428571428572 458.5310222080776C245.23809523809524 448.709593636649 269.04761904761904 325.8524507795061 328.57142857142856 328.53102220807756C388.0952380952381 331.209593636649 411.9047619047619 466.9238793509347 471.42857142857144 471.38816506522045C530.9523809523808 475.85245077950617 554.7619047619048 358.2929269699823 614.2857142857143 349.959593636649C673.8095238095237 341.6262603033157 697.6190476190477 429.9000698271252 757.1428571428571 431.38816506522045C816.6666666666666 432.8762603033157 870.2380952380952 372.57864125569665 900 357.10245077950617 " transform="rotate(20, 400, 400)"></path><path d="M-37.5 446.21464920043945C-11.458333333333314 432.15214920043945 35.41666666666663 377.67298253377277 87.5 378.71464920043945C139.58333333333337 379.75631586710614 160.41666666666663 459.80839920043945 212.5 451.21464920043945C264.58333333333337 442.62089920043945 285.41666666666663 335.12089920043945 337.5 337.46464920043945C389.58333333333337 339.80839920043945 410.41666666666663 458.55839920043945 462.5 462.46464920043945C514.5833333333333 466.37089920043945 535.4166666666667 363.50631586710614 587.5 356.21464920043945C639.5833333333333 348.92298253377277 660.4166666666667 426.16256586710614 712.5 427.46464920043945C764.5833333333333 428.7667325337728 811.4583333333333 376.00631586710614 837.5 362.46464920043945 " transform="rotate(17.5, 400, 400)"></path><path d="M25 439.6125695364816C47.321428571428584 427.55899810791016 87.49999999999997 380.8625695364816 132.14285714285714 381.7554266793387C176.7857142857143 382.6482838221959 194.6428571428571 451.2643552507673 239.28571428571428 443.8982838221959C283.92857142857144 436.53221239362443 301.7857142857143 344.3893552507673 346.42857142857144 346.3982838221959C391.07142857142856 348.40721239362443 408.92857142857144 450.1929266793387 453.57142857142856 453.54114096505305C498.2142857142858 456.8893552507673 516.0714285714286 368.71971239362443 560.7142857142857 362.46971239362443C605.3571428571429 356.21971239362443 623.2142857142857 422.4250695364816 667.8571428571429 423.54114096505305C712.5 424.65721239362443 752.6785714285714 379.43399810791016 775 367.8268552507673 " transform="rotate(15, 400, 400)"></path><path d="M87.5 433.01045554024836C106.10119047619048 422.96581268310547 139.58333333333331 384.052122206915 176.78571428571428 384.79616982596264C213.98809523809524 385.5402174450102 228.86904761904762 442.72027696881975 266.07142857142856 436.5818841116769C303.2738095238095 430.443491254534 318.15476190476187 353.65777696881975 355.35714285714283 355.3318841116769C392.55952380952385 357.005991254534 407.44047619047615 441.82741982596264 444.64285714285717 444.6175983973912C481.845238095238 447.40777696881975 496.72619047619054 373.9330745878674 533.9285714285714 368.724741254534C571.1309523809523 363.5164079212007 586.0119047619048 418.6875388735817 623.2142857142857 419.6175983973912C660.4166666666666 420.5476579212007 693.8988095238095 382.8616460164388 712.5 373.18902696881975 " transform="rotate(12.5, 400, 400)"></path><path d="M150 426.40837587629045C164.8809523809524 418.3726615905762 191.66666666666666 387.24170920962376 221.42857142857144 387.8369473048619C251.1904761904762 388.43218540009997 263.0952380952381 434.1762330191476 292.8571428571429 429.26551873343334C322.6190476190476 424.35480444771906 334.5238095238095 362.9262330191476 364.2857142857143 364.26551873343334C394.04761904761904 365.604804447719 405.95238095238096 433.4619473048619 435.7142857142857 435.6940901620047C465.4761904761904 437.9262330191476 477.3809523809524 379.1464711143857 507.14285714285717 374.979804447719C536.9047619047619 370.8131377810524 548.8095238095239 414.95004254295714 578.5714285714286 415.6940901620047C608.3333333333333 416.4381377810524 635.1190476190476 386.28932825724286 650 378.5512330191476 " transform="rotate(10, 400, 400)"></path><path d="M212.5 419.806273324149C223.66071428571428 413.7794876098633 243.75 390.431273324149 266.07142857142856 390.87770189557756C288.39285714285717 391.32413046700617 297.32142857142856 425.63216618129184 319.6428571428571 421.94913046700617C341.9642857142857 418.26609475272045 350.8928571428571 372.19466618129184 373.2142857142857 373.1991304670061C395.5357142857143 374.20359475272045 404.4642857142857 425.09645189557756 426.7857142857143 426.7705590384347C449.1071428571429 428.44466618129184 458.0357142857143 384.35984475272045 480.35714285714283 381.23484475272045C502.67857142857144 378.1098447527204 511.60714285714283 411.212523324149 533.9285714285714 411.7705590384347C556.25 412.3285947527204 576.3392857142858 389.7169876098633 587.5 383.91341618129184 " transform="rotate(7.5, 400, 400)"></path><path d="M275 413.2041898454939C282.4404761904762 409.1863327026367 295.8333333333333 393.6208565121605 310.7142857142857 393.91847555977955C325.5952380952381 394.21609460739865 331.54761904761904 417.08811841692244 346.42857142857144 414.6327612740653C361.3095238095238 412.17740413120816 367.26190476190476 381.46311841692244 382.1428571428571 382.1327612740653C397.0238095238095 382.80240413120816 402.9761904761905 416.7309755597796 417.8571428571429 417.847046988351C432.7380952380952 418.96311841692244 438.6904761904762 389.5732374645415 453.57142857142856 387.48990413120816C468.45238095238096 385.4065707978748 474.4047619047619 407.4750231788272 489.2857142857143 407.847046988351C504.16666666666663 408.2190707978748 517.5595238095239 393.14466603597003 525 389.27561841692244 " transform="rotate(5, 400, 400)"></path><path d="M337.5 406.60209206172397C341.2202380952381 404.5931634902954 347.91666666666663 396.81042539505734 355.3571428571429 396.95923491886685C362.79761904761904 397.1080444426764 365.7738095238095 408.5440563474383 373.2142857142857 407.3163777760097C380.6547619047619 406.08869920458113 383.6309523809524 390.73155634743824 391.07142857142856 391.0663777760097C398.51190476190476 391.40119920458113 401.48809523809524 408.36548491886685 408.92857142857144 408.9235206331526C416.3690476190476 409.4815563474383 419.3452380952381 394.7866158712478 426.7857142857143 393.74494920458113C434.2261904761905 392.70328253791445 437.20238095238096 403.73750872839065 444.6428571428571 403.9235206331526C452.0833333333333 404.10953253791445 458.7797619047619 396.5723301569621 462.5 394.6378063474383 " transform="rotate(2.5, 400, 400)"></path></g></svg>